<svg width="76" height="76" viewBox="0 0 76 76" fill="none" xmlns="http://www.w3.org/2000/svg">
<g clip-path="url(#clip0_2_6426)">
<path d="M35.3281 55.1436C34.7131 55.1436 34.2148 55.642 34.2148 56.2568C34.2148 56.8717 34.7131 57.3701 35.3281 57.3701H40.6719C41.2869 57.3701 41.7852 56.8717 41.7852 56.2568C41.7852 55.642 41.2869 55.1436 40.6719 55.1436H35.3281Z" fill="#FFB400"/>
<path d="M13.3594 37.8574H20.7183C21.1678 39.0273 22.3002 39.8613 23.6264 39.8613C24.9525 39.8613 26.0849 39.0273 26.5344 37.8574H28.0053C28.6202 37.8574 29.1185 37.359 29.1185 36.7441C29.1185 36.1293 28.6202 35.6309 28.0053 35.6309H26.5344C26.0849 34.461 24.9525 33.627 23.6264 33.627C22.3002 33.627 21.1678 34.461 20.7183 35.6309H13.3594C12.7444 35.6309 12.2461 36.1293 12.2461 36.7441C12.2461 37.359 12.7444 37.8574 13.3594 37.8574ZM23.6264 35.8535C24.1175 35.8535 24.517 36.253 24.517 36.7441C24.517 37.2353 24.1175 37.6348 23.6264 37.6348C23.1352 37.6348 22.7357 37.2353 22.7357 36.7441C22.7357 36.253 23.1352 35.8535 23.6264 35.8535Z" fill="#FFB400"/>
<path d="M13.3594 31.4746H14.7808C15.2303 32.6444 16.3627 33.4785 17.6889 33.4785C19.015 33.4785 20.1474 32.6444 20.5969 31.4746H28.0053C28.6202 31.4746 29.1185 30.9762 29.1185 30.3613C29.1185 29.7465 28.6202 29.248 28.0053 29.248H20.5969C20.1474 28.0782 19.015 27.2441 17.6889 27.2441C16.3627 27.2441 15.2303 28.0782 14.7808 29.248H13.3594C12.7444 29.248 12.2461 29.7465 12.2461 30.3613C12.2461 30.9762 12.7444 31.4746 13.3594 31.4746ZM17.6889 29.4707C18.18 29.4707 18.5795 29.8701 18.5795 30.3613C18.5795 30.8525 18.18 31.252 17.6889 31.252C17.1977 31.252 16.7982 30.8525 16.7982 30.3613C16.7982 29.8701 17.1977 29.4707 17.6889 29.4707Z" fill="#FFB400"/>
<path d="M28.2285 21.2324C28.8434 21.2324 29.3418 20.734 29.3418 20.1191C29.3418 19.5043 28.8434 19.0059 28.2285 19.0059C27.6137 19.0059 27.1152 19.5043 27.1152 20.1191C27.1152 20.734 27.6137 21.2324 28.2285 21.2324Z" fill="#FFB400"/>
<path d="M25.1602 21.2324C25.775 21.2324 26.2734 20.734 26.2734 20.1191C26.2734 19.5043 25.775 19.0059 25.1602 19.0059C24.5453 19.0059 24.0469 19.5043 24.0469 20.1191C24.0469 20.734 24.5453 21.2324 25.1602 21.2324Z" fill="#FFB400"/>
<path d="M22.0918 21.2324C22.7066 21.2324 23.2051 20.734 23.2051 20.1191C23.2051 19.5043 22.7066 19.0059 22.0918 19.0059C21.4769 19.0059 20.9785 19.5043 20.9785 20.1191C20.9785 20.734 21.4769 21.2324 22.0918 21.2324Z" fill="#FFB400"/>
<path d="M72.6602 7.49403H72.2432L72.5542 7.18305C73.4856 6.25161 73.4856 4.73591 72.5542 3.80447L70.1171 1.36742C69.1857 0.436121 67.6701 0.436121 66.7385 1.36742L60.6124 7.49388H3.33984C1.49833 7.49388 0 8.99206 0 10.8337V57.0667C0 59.3176 1.83113 61.1487 4.08203 61.1487H30.4512V69.024H25.0859C23.6537 69.024 22.4883 70.1894 22.4883 71.6217V72.7341C22.4883 74.1664 23.6537 75.3317 25.0859 75.3317H50.9141C52.3463 75.3317 53.5117 74.1664 53.5117 72.7341V71.6217C53.5117 70.1894 52.3463 69.024 50.9141 69.024H45.5488V61.1487H57.4453C58.0603 61.1487 58.5586 60.6502 58.5586 60.0354C58.5586 59.4206 58.0603 58.9221 57.4453 58.9221H4.08203C3.05885 58.9221 2.22656 58.0898 2.22656 57.0667V53.7713H73.7734V57.0667C73.7734 58.0898 72.9411 58.9221 71.918 58.9221H62.6406C62.0257 58.9221 61.5273 59.4206 61.5273 60.0354C61.5273 60.6502 62.0257 61.1487 62.6406 61.1487H71.918C74.1689 61.1487 76 59.3176 76 57.0667V10.8339C76 8.99236 74.5017 7.49403 72.6602 7.49403ZM50.9141 71.2508C51.1188 71.2508 51.2852 71.4173 51.2852 71.6218V72.7342C51.2852 72.9388 51.1188 73.1053 50.9141 73.1053H25.0859C24.8812 73.1053 24.7148 72.9388 24.7148 72.7342V71.6218C24.7148 71.4173 24.8812 71.2508 25.0859 71.2508H50.9141ZM32.6778 61.149H43.3224V69.0243H32.6778V61.149ZM68.313 2.94204C68.3765 2.87866 68.4796 2.87881 68.5428 2.94204L70.9797 5.37894C71.0431 5.44232 71.0431 5.54549 70.9797 5.60872L68.6544 7.934L65.9877 5.26732L68.313 2.94204ZM64.4133 6.84179L67.0798 9.50847L66.3033 10.2849L63.6368 7.61827L64.4133 6.84179ZM62.0623 9.19275L64.729 11.8594L51.555 25.0334L48.8883 22.3667L62.0623 9.19275ZM60.4141 19.371C61.9283 19.371 63.1602 20.6028 63.1602 22.1171C63.1602 23.6313 61.9283 24.8631 60.4141 24.8631C58.8999 24.8631 57.668 23.6313 57.668 22.1171C57.668 22.0994 57.6703 22.0823 57.6706 22.0647L60.3621 19.3736C60.3795 19.3733 60.3965 19.371 60.4141 19.371ZM49.6218 26.2491L46.3269 27.5948L47.6726 24.3L49.6218 26.2491ZM73.7734 51.5451H2.22656V10.8339C2.22656 10.2201 2.72591 9.72059 3.33984 9.72059H58.386L56.6884 11.4181H18.8516C18.2366 11.4181 17.7383 11.9166 17.7383 12.5314C17.7383 13.1462 18.2366 13.6447 18.8516 13.6447H54.462L46.6095 21.4976C46.3876 21.7215 46.2141 21.9827 46.0946 22.2751L43.6078 28.3634C43.3797 28.9226 43.5082 29.5599 43.9353 29.9868C44.2219 30.2734 44.6031 30.4254 44.9919 30.4254C45.1824 30.4254 45.3747 30.3889 45.5586 30.3139L51.6468 27.8273C51.9309 27.7112 52.185 27.5432 52.4047 27.3302L55.7914 23.9439C56.521 25.7843 58.3171 27.0899 60.4142 27.0899C63.1562 27.0899 65.3869 24.8591 65.3869 22.1172C65.3869 20.0204 64.0817 18.2244 62.2415 17.4947L66.0918 13.6448H69.8493V47.6211H69.2593L65.2248 40.6331C64.9175 40.1005 64.2362 39.9181 63.704 40.2257C63.1716 40.5331 62.9892 41.214 63.2966 41.7464L66.6884 47.6211H51.1366L49.4686 44.7321L57.2445 31.2639L60.6988 37.2471C61.0063 37.7796 61.6872 37.9622 62.2195 37.6546C62.752 37.3472 62.9344 36.6663 62.627 36.1339L58.9417 29.7509C58.5874 29.1373 57.953 28.7709 57.2443 28.7709C56.5357 28.7709 55.9011 29.1373 55.5468 29.7509L48.1828 42.5057L38.7342 26.1403C38.3799 25.5267 37.7454 25.1603 37.0366 25.1603C36.3281 25.1603 35.6936 25.5267 35.3393 26.1403L32.829 30.4882V18.5548C32.829 17.1226 31.6636 15.9572 30.2314 15.9572H11.1328C9.70054 15.9572 8.53516 17.1226 8.53516 18.5548V42.8986C8.53516 43.9218 9.36744 44.7541 10.3906 44.7541H24.593L22.9376 47.6213H6.1508V13.6447H13.6562C14.2712 13.6447 14.7695 13.1462 14.7695 12.5314C14.7695 11.9166 14.2712 11.4181 13.6562 11.4181H5.77971C4.75653 11.4181 3.92424 12.2504 3.92424 13.2736V47.9921C3.92424 49.0153 4.75653 49.8475 5.77971 49.8475H70.2204C71.2436 49.8475 72.0759 49.0153 72.0759 47.9921V13.2736C72.0759 12.2504 71.2436 11.4181 70.2204 11.4181H68.3187L70.0165 9.72059H72.6602C73.2741 9.72059 73.7734 10.2201 73.7734 10.8339V51.5451ZM30.6029 24.7203V42.5272H10.7617V24.7203H30.6029ZM10.7617 22.4938V18.5546C10.7617 18.35 10.9281 18.1835 11.1328 18.1835H30.2318C30.4365 18.1835 30.6029 18.35 30.6029 18.5546V22.4938H10.7617ZM27.1641 44.7538H30.974C31.9972 44.7538 32.8295 43.9215 32.8295 42.8983V40.5401C33.1079 40.6737 33.418 40.746 33.7428 40.746C34.5028 40.746 35.1833 40.3529 35.5631 39.6949L37.4578 36.4134C37.5151 36.3142 37.6026 36.2933 37.6657 36.2933C37.7291 36.2933 37.8167 36.3142 37.8738 36.4134L39.0419 38.4364C39.4219 39.0947 40.1025 39.4877 40.8626 39.4877C41.6226 39.4877 42.3032 39.0947 42.6831 38.4366L42.9731 37.9343L48.5656 47.6208H25.5087L27.1641 44.7538ZM32.8295 36.8134V34.941L37.0372 27.6532L41.6875 35.7077L40.8625 37.1366L39.802 35.2999C39.3561 34.5276 38.5575 34.0666 37.6656 34.0666C36.7738 34.0666 35.9752 34.5276 35.5293 35.2999L33.7424 38.3949L32.8295 36.8134Z" fill="#FFB400"/>
</g>
<defs>
<clipPath id="clip0_2_6426">
<rect width="76" height="76" fill="white"/>
</clipPath>
</defs>
</svg>
