<svg width="74" height="74" viewBox="0 0 74 74" fill="none" xmlns="http://www.w3.org/2000/svg">
<g clip-path="url(#clip0_2_627)">
<path d="M36.9997 0C29.0174 0 22.5215 6.7533 22.5215 15.0526V37C22.5215 45.3009 29.0174 52.0526 36.9997 52.0526C44.9821 52.0526 51.478 45.3009 51.478 37V15.0526C51.478 6.7533 44.9821 0 36.9997 0ZM36.9997 48.8352C31.3114 48.8352 26.606 44.3743 25.8547 38.6087H48.1432C47.3935 44.3759 42.6881 48.8352 36.9997 48.8352ZM48.2606 35.3913H25.7389V15.0526C25.7389 8.52609 30.7902 3.21739 36.9997 3.21739C43.2093 3.21739 48.2606 8.52609 48.2606 15.0526V35.3913Z" fill="#FFB400"/>
<path d="M59.5213 28.9561C58.6333 28.9561 57.9126 29.6768 57.9126 30.5648V36.9995C57.9126 48.5307 48.5307 57.9126 36.9996 57.9126C25.4684 57.9126 16.0865 48.5307 16.0865 36.9995V30.5648C16.0865 29.6768 15.3658 28.9561 14.4778 28.9561C13.5898 28.9561 12.8691 29.6768 12.8691 30.5648V36.9995C12.8691 49.7613 22.835 60.2146 35.3909 61.0479V70.7821H27.3474C26.4594 70.7821 25.7387 71.5028 25.7387 72.3908C25.7387 73.2788 26.4594 73.9995 27.3474 73.9995H46.6517C47.5397 73.9995 48.2604 73.2788 48.2604 72.3908C48.2604 71.5028 47.5397 70.7821 46.6517 70.7821H38.6083V61.0479C51.1641 60.2146 61.13 49.7613 61.13 36.9995V30.5648C61.13 29.6768 60.4093 28.9561 59.5213 28.9561Z" fill="#FFB400"/>
</g>
<defs>
<clipPath id="clip0_2_627">
<rect width="74" height="74" fill="white"/>
</clipPath>
</defs>
</svg>
